<?xml version="1.0" encoding="UTF-8" standalone="no"?>
<svg
   width="16"
   height="16"
   fill="currentColor"
   class="bi bi-diagram-2"
   viewBox="0 0 16 16"
   version="1.1"
   id="svg2233"
   sodipodi:docname="icon.svg"
   inkscape:export-filename="..\..\..\src\public\assets\icon-80.png"
   inkscape:export-xdpi="480"
   inkscape:export-ydpi="480"
   inkscape:version="1.2 (dc2aedaf03, 2022-05-15)"
   xmlns:inkscape="http://www.inkscape.org/namespaces/inkscape"
   xmlns:sodipodi="http://sodipodi.sourceforge.net/DTD/sodipodi-0.dtd"
   xmlns="http://www.w3.org/2000/svg"
   xmlns:svg="http://www.w3.org/2000/svg">
  <defs
     id="defs2237" />
  <sodipodi:namedview
     id="namedview2235"
     pagecolor="#0d2747"
     bordercolor="#000000"
     borderopacity="0.25"
     inkscape:showpageshadow="2"
     inkscape:pageopacity="1"
     inkscape:pagecheckerboard="0"
     inkscape:deskcolor="#d1d1d1"
     showgrid="false"
     inkscape:zoom="3.4879962"
     inkscape:cx="-91.599869"
     inkscape:cy="44.438121"
     inkscape:window-width="2560"
     inkscape:window-height="1369"
     inkscape:window-x="-8"
     inkscape:window-y="-8"
     inkscape:window-maximized="1"
     inkscape:current-layer="svg2233" />
  <path
     fill-rule="evenodd"
     d="M 5.8003709,3.0508346 A 1.6497217,1.6497217 0 0 1 7.4500925,1.4011129 H 8.549907 a 1.6497217,1.6497217 0 0 1 1.649722,1.6497217 V 4.1506491 A 1.6497217,1.6497217 0 0 1 8.549907,5.8003708 v 1.0998145 h 2.749536 a 0.54990723,0.54990723 0 0 1 0.549908,0.5499072 V 8.549907 a 0.54990758,0.54990758 0 0 1 -1.099815,0 V 7.9999998 H 5.2504636 V 8.549907 a 0.5499073,0.5499073 0 0 1 -1.0998146,0 V 7.4500925 A 0.54990723,0.54990723 0 0 1 4.7005564,6.9001853 H 7.4500925 V 5.8003708 A 1.6497217,1.6497217 0 0 1 5.8003709,4.1506491 Z M 8.549907,4.7005564 A 0.54990723,0.54990723 0 0 0 9.0998142,4.1506491 V 3.0508346 A 0.54990723,0.54990723 0 0 0 8.549907,2.5009273 H 7.4500925 A 0.54990723,0.54990723 0 0 0 6.9001853,3.0508346 V 4.1506491 A 0.54990723,0.54990723 0 0 0 7.4500925,4.7005564 Z M 2.5009274,11.849352 A 1.6497217,1.6497217 0 0 1 4.150649,10.199629 h 1.0998146 a 1.6497217,1.6497217 0 0 1 1.6497217,1.649723 v 1.099814 A 1.6497217,1.6497217 0 0 1 5.2504636,14.598888 H 4.150649 A 1.6497217,1.6497217 0 0 1 2.5009274,12.949166 Z M 4.150649,11.299444 a 0.54990723,0.54990723 0 0 0 -0.5499072,0.549908 v 1.099814 A 0.54990723,0.54990723 0 0 0 4.150649,13.499073 H 5.2504636 A 0.54990723,0.54990723 0 0 0 5.8003709,12.949166 V 11.849352 A 0.54990723,0.54990723 0 0 0 5.2504636,11.299444 Z m 4.9491652,0.549908 a 1.6497217,1.6497217 0 0 1 1.6497218,-1.649723 h 1.099815 a 1.6497217,1.6497217 0 0 1 1.649721,1.649723 v 1.099814 a 1.6497217,1.6497217 0 0 1 -1.649721,1.649722 H 10.749536 A 1.6497217,1.6497217 0 0 1 9.0998142,12.949166 Z m 1.6497218,-0.549908 a 0.54990723,0.54990723 0 0 0 -0.549907,0.549908 v 1.099814 a 0.54990723,0.54990723 0 0 0 0.549907,0.549907 h 1.099815 a 0.54990723,0.54990723 0 0 0 0.549907,-0.549907 v -1.099814 a 0.54990723,0.54990723 0 0 0 -0.549907,-0.549908 z"
     id="path2231"
     style="fill:#ffffff;fill-opacity:1;stroke-width:1.09982" />
</svg>
